# xmcd
#
# Track frame offsets: 
#        150
#        10959
#        23572
#        34139
#        45807
#        59363
#        69439
#        81349
#        93798
#        108123
#        122074
#        142479
#        155391
#        168551
#        182030
#        193979
#        203212
#        216227
#        229799
#        243148
#        255968
#        269459
#        283791
#        295369
#        307415
#        321905
#        333512
#
# Disc length: 4607 seconds
#
# Revision: 4
# Processed by: cddbd v1.5.2PL0 Copyright (c) Steve Scherf et al.
# Submitted via: ExactAudioCopy v0.95a5
#
DISCID=9111fd1b
DTITLE=Various Artist - The Roots Of Elvis
DYEAR=2005
DGENRE=R&B
TTITLE0=Bernard Hardison - Too Much
TTITLE1=Willy and Ruth - Love Me
TTITLE2=Red Foley - Hearts Of Stone
TTITLE3=Martha Carson - Satisfied
TTITLE4=Darrell Glenn - Crying In The Chapel
TTITLE5=Kay Star - Fool, Fool, Fool
TTITLE6=The Eagles - Tryin' To Get To You
TTITLE7=Arthur Gunter - Baby Let's Play House
TTITLE8=Lowell Fulson - Reconsider Baby
TTITLE9=Billy Emerson - When It Rains It Pours
TTITLE10=Brother Claude Ely - Theres A Leak In This Old Building
TTITLE11=Ray Charles - I Got A Woman
TTITLE12=Chuck Willis - Feel So Bad
TTITLE13=Joe Turner - Shake, Rattle And Roll
TTITLE14=Freddie Bell and The Bell Boys - Hound Dog
TTITLE15=Jimmy Rodgers Snow - How Do You Think I Feel
TTITLE16=Bob Wills - Faded Love
TTITLE17=The Robins - (Now And Then There's) A Fool Such As I
TTITLE18=Clyde McPhatter and The Drifters - Money Honey
TTITLE19=Rufus Thomas - Tiger Man (King Of The Jungle)
TTITLE20=Roy Hamilton - I'm Gonna Sit Right Down And Cry (Over You)
TTITLE21=Lavern Baker - Tweedlee Dee
TTITLE22=Billy Bunn and His Buddies - That's When Your Heartaches Begin
TTITLE23=Clyde McPhatter and The Drifters - White Christmas
TTITLE24=Red Foley - Peace In The Valley
TTITLE25=The Charms - Hearts Of Stone
TTITLE26=Jimmy Rodgers Snow - Love Me
EXTD=
EXTT0=
EXTT1=
EXTT2=
EXTT3=
EXTT4=
EXTT5=
EXTT6=
EXTT7=
EXTT8=
EXTT9=
EXTT10=
EXTT11=
EXTT12=
EXTT13=
EXTT14=
EXTT15=
EXTT16=
EXTT17=
EXTT18=
EXTT19=
EXTT20=
EXTT21=
EXTT22=
EXTT23=
EXTT24=
EXTT25=
EXTT26=
PLAYORDER=
